<?xml version="1.0" encoding="UTF-8"?>
<svg id="Capa_1" data-name="Capa 1" xmlns="http://www.w3.org/2000/svg" viewBox="0 0 128 128">
  <defs>
    <style>
      .cls-1 {
        fill: #fff;
      }
    </style>
  </defs>
  <path class="cls-1" d="M127.5,17.72c-2.81-1.4-7.45-4.31-8.56-5.3-3.8-3.39-7.91-7.84-13.33-7.84h-2.67c-7.72,0-13.99,6.26-13.99,13.99s6.26,13.98,13.99,13.98h2.67c5.8,0,10.22-3.78,13.44-8.56,.55-.81,5.57-3.39,8.41-4.65,.7-.31,.72-1.29,.04-1.63m-21.35-.18c-1.63,1.48-4.15,1.35-5.63-.28-1.48-1.63-1.35-4.15,.28-5.63,1.63-1.48,4.15-1.35,5.63,.28,1.48,1.63,1.35,4.15-.28,5.63"/>
  <path class="cls-1" d="M31.36,103.13c-5.67-3.26-7.97-5.34-9.01-6.58-.73-.87-2.01-.95-2.82-.14C13.05,102.87,3.47,108.55,.22,114.31c-.37,.65-.26,1.46,.21,2.05,5.08,6.34,25.06,5.18,35.05-6.78,1.7-3.54,2.46-3.08-4.12-6.45"/>
  <path class="cls-1" d="M109.68,115.53H62.04c-.31,0-.58-.22-.65-.53l-1.48-7.66c-.14-.75-.87-1.24-1.62-1.1l-4.43,.86c-.87,.17-1.43,1-1.27,1.87l1.12,5.78c.08,.41-.23,.78-.64,.78h-13.01c-.36,0-.65,.29-.65,.66v6.57c0,.36,.29,.65,.65,.65H109.68c.36,0,.66-.29,.66-.65v-6.57c0-.36-.29-.66-.66-.66"/>
  <path class="cls-1" d="M38.13,94.79h-.05c-1.98,.49-3.89,.82-5.73,1.04-1.96,.22-2.29,2.87-.47,3.6,37.32,14.75,103.16-30.99,63.44-60.49-.8-.6-1.95-.02-1.91,.96,.02,.58,.02,1.18,0,1.76,.62,4.49-.11,9.26-2.22,14.28-7.49,17.66-31.56,34.74-53.07,38.85"/>
  <path class="cls-1" d="M27.83,88.55c-.6,.65-.44,1.31-.29,1.64,.11,.27,.58,1.05,1.82,1.09,21.75-.31,49.82-18.35,57.75-37.07,3.62-8.57,2.53-16.01-3.27-22.17-.4-.45-1-.69-1.64-.69h-.02c-.36,0-1.02,.09-1.53,.64-5.18,5.53-15.79,16.9-26.57,28.43-10.08,10.82-20.28,21.75-26.26,28.12"/>
</svg>