<?xml version="1.0" encoding="UTF-8"?>
<svg id="Capa_1" data-name="Capa 1" xmlns="http://www.w3.org/2000/svg" viewBox="0 0 1080 1080">
  <defs>
    <style>
      .cls-1 {
        fill: #ef630e;
      }
    </style>
  </defs>
  <path class="cls-1" d="m474.19,324.16c.56.54,1.11.52,1.66-.05l19.35-20.13c5.18-5.39,7.97-10.76,8.38-16.11.41-5.34-1.51-10.05-5.76-14.14-4.36-4.19-9.23-5.99-14.6-5.43-5.38.57-10.66,3.55-15.84,8.94l-19.35,20.13c-.55.57-.55,1.13.01,1.66l26.15,25.12Z"/>
  <path class="cls-1" d="m968.56,2.95H111.44C50.33,2.95.32,52.96.32,114.07v857.12c0,61.12,50,111.12,111.12,111.12h857.12c61.12,0,111.12-50,111.12-111.12V114.07c0-61.12-50-111.12-111.12-111.12Zm-321.21,344.02h.13c3.81,0,7.37,1.45,9.73,4.08,34.33,36.44,40.78,80.5,19.34,131.28-46.96,110.89-213.23,217.7-342,219.54-7.37-.26-10.13-4.87-10.79-6.45-.92-1.97-1.84-5.92,1.71-9.73,35.38-37.75,95.76-102.47,155.48-166.53,63.8-68.27,126.67-135.62,157.32-168.37,3.03-3.29,6.97-3.81,9.08-3.81Zm66.56,61.03c.13-3.42.13-6.97,0-10.39-.26-5.79,6.58-9.21,11.31-5.66,235.19,174.68-154.69,445.52-375.68,358.18-10.79-4.34-8.81-19.99,2.76-21.31,10.92-1.32,22.23-3.29,33.94-6.18h.26c127.33-24.34,269.92-125.49,314.25-230.06,12.5-29.73,16.84-58.01,13.15-84.58Zm-308.31-107.06l41.5-43.19c26.12-27.19,49.91-30.47,71.37-9.86,11.17,10.74,14.48,23.29,9.91,37.65-.33,1.01,0,1.33,1,.97,15.94-5.63,30.29-2.34,43.03,9.9,10.84,10.41,15.38,22.06,13.64,34.95-1.74,12.88-8.51,25.47-20.31,37.74l-42.83,44.57c-.55.57-1.21.87-1.99.9-.78.03-1.44-.23-2-.77l-113.3-108.86c-.56-.54-.84-1.19-.84-1.97,0-.78.26-1.45.82-2.03Zm-85.44,94.29c3.38-8.88,9.04-17.46,16.98-25.72,8.38-8.72,17.35-15.04,26.93-18.97,9.57-3.93,18.92-5.21,28.03-3.85,9.11,1.37,17.25,5.48,24.4,12.35l2.51,2.42c.56.54.84,1.19.84,1.97,0,.78-.27,1.45-.82,2.02l-19.01,19.79c-.55.58-1.21.88-1.99.9-.78.03-1.44-.23-2-.77l-1.34-1.29c-4.69-4.51-10.59-6.36-17.69-5.58-7.1.79-13.96,4.63-20.57,11.51-5.18,5.39-8.12,10.68-8.8,15.87-.69,5.19.93,9.66,4.84,13.41,2.79,2.68,5.99,4.05,9.6,4.1,3.61.05,7.84-.95,12.72-3,4.87-2.05,12.12-5.51,21.74-10.38,10.74-5.35,19.45-9.28,26.15-11.78,6.7-2.5,14.05-3.49,22.04-2.98,8,.52,15.51,4.15,22.55,10.91,10.5,10.09,15,22.02,13.48,35.79-1.52,13.77-8.78,27.42-21.78,40.96-8.82,9.18-17.96,15.84-27.42,19.98-9.46,4.14-18.64,5.53-27.53,4.16-8.89-1.37-16.85-5.44-23.89-12.2l-3.69-3.54c-.56-.54-.84-1.19-.85-1.97,0-.77.26-1.45.82-2.03l18.85-19.62c.55-.57,1.21-.87,1.99-.9.78-.02,1.45.23,2.01.77l2.51,2.42c4.47,4.29,10.28,5.8,17.43,4.5,7.15-1.29,14.2-5.55,21.14-12.78,5.84-6.08,8.94-11.82,9.29-17.22.35-5.4-1.32-9.87-5-13.41-2.68-2.58-5.83-3.83-9.43-3.77-3.6.06-7.62,1.01-12.05,2.81-4.43,1.82-11.18,4.98-20.25,9.5-9.95,5.22-18.84,9.21-26.64,11.96-7.81,2.76-15.76,3.72-23.87,2.87-8.11-.84-15.57-4.54-22.39-11.08-6.71-6.44-10.86-13.86-12.47-22.24-1.61-8.39-.73-17.03,2.65-25.91Zm-127.02,126.83l19.35-20.13c.55-.57,1.21-.87,1.99-.9.78-.02,1.45.23,2,.77l76.59,73.59c5.92,5.69,12.49,8.42,19.7,8.18,7.21-.24,13.74-3.4,19.58-9.48,5.84-6.08,8.74-12.73,8.69-19.94-.05-7.22-3.03-13.67-8.96-19.36l-76.59-73.59c-.56-.54-.84-1.19-.84-1.97,0-.78.26-1.45.82-2.03l19.34-20.13c.55-.57,1.22-.87,1.99-.9.78-.02,1.45.23,2,.76l76.42,73.43c7.93,7.62,13.15,16.23,15.66,25.8,2.51,9.58,2.21,19.34-.88,29.27-3.1,9.93-8.89,19.32-17.37,28.15-8.49,8.84-17.63,14.99-27.43,18.49-9.8,3.49-19.54,4.18-29.21,2.05-9.67-2.12-18.47-6.99-26.41-14.62l-76.42-73.43c-.56-.54-.84-1.19-.85-1.97,0-.78.26-1.45.82-2.03Zm177.61,288.17c-59.15,70.78-177.48,77.69-207.53,40.12-2.75-3.44-3.4-8.28-1.24-12.11,19.27-34.09,75.96-67.77,114.38-106.03,4.77-4.76,12.36-4.32,16.68.85,6.15,7.36,19.73,19.69,53.32,38.97,38.95,19.93,34.44,17.23,24.38,38.2Zm443.33,78.03c0,2.14-1.74,3.88-3.88,3.88h-412.3c-2.14,0-3.88-1.74-3.88-3.88v-38.93c0-2.14,1.74-3.88,3.88-3.88h77.04c2.44,0,4.27-2.22,3.81-4.62l-6.62-34.26c-.99-5.12,2.36-10.08,7.48-11.07l26.26-5.07c4.46-.86,8.77,2.05,9.63,6.51l8.77,45.36c.35,1.83,1.95,3.14,3.81,3.14h282.13c2.14,0,3.88,1.74,3.88,3.88v38.93Zm101.41-612.37c-16.8,7.47-46.53,22.69-49.78,27.51-19.08,28.31-45.24,50.71-79.59,50.71h-15.79c-45.74,0-82.82-37.08-82.82-82.82s37.08-82.82,82.82-82.82h15.79c32.08,0,56.37,26.32,78.91,46.4,6.53,5.82,34.05,23.06,50.68,31.37,4.05,2.02,3.92,7.8-.22,9.65Z"/>
  <path class="cls-1" d="m495.14,344.29l27.82,26.73c.56.54,1.11.52,1.66-.05l20.67-21.51c5.07-5.27,7.72-10.66,7.97-16.17.24-5.5-1.93-10.46-6.51-14.86-4.58-4.4-9.62-6.37-15.11-5.91-5.49.46-10.83,3.39-16.01,8.78l-20.5,21.34c-.55.57-.55,1.13.01,1.66Z"/>
  <path class="cls-1" d="m757.59,230.23c-9.66,8.75-10.39,23.67-1.64,33.32,8.75,9.66,23.67,10.39,33.32,1.64,9.66-8.75,10.39-23.67,1.64-33.32-8.75-9.66-23.67-10.39-33.32-1.64Z"/>
</svg>