<svg xmlns="http://www.w3.org/2000/svg" viewBox="0 0 1080 1080"><defs><style>.cls-1{fill:#01abff;}.cls-10,.cls-2,.cls-5{fill:#fff;}.cls-3,.cls-4{fill:none;stroke:#000;stroke-linecap:round;stroke-miterlimit:10;}.cls-3{stroke-width:21px;}.cls-4{stroke-width:9px;}.cls-5{font-size:77px;letter-spacing:-0.03em;}.cls-10,.cls-5{font-family:Montserrat-SemiBold, Montserrat;font-weight:600;}.cls-6{letter-spacing:-0.04em;}.cls-7{letter-spacing:-0.03em;}.cls-8{letter-spacing:-0.04em;}.cls-9{letter-spacing:-0.08em;}.cls-10{font-size:67px;letter-spacing:-0.03em;}</style></defs><g id="Capa_7" data-name="Capa 7"><polygon points="360.89 636.58 367.9 689.45 370.32 707.72 831.46 756.58 872.61 554.29 402.04 549.15 360.89 636.58"/><polygon points="446.18 783.15 370.32 707.72 451.13 716.28 446.18 783.15"/><polygon class="cls-1" points="455.18 393.15 916.32 334.86 916.32 562.01 448.12 562.01 455.18 393.15"/><circle cx="312.04" cy="487.43" r="176.57"/><circle class="cls-2" cx="312.04" cy="487.43" r="136.08"/><rect x="136.67" y="329.72" width="80.57" height="50.57" rx="17.14" transform="translate(286.53 -26.22) rotate(42.53)"/><rect x="356.34" y="294.36" width="80.57" height="50.57" rx="17.14" transform="translate(880.28 159.74) rotate(122.84)"/><rect x="254.86" y="276.64" width="53.14" height="53.14" rx="10.77" transform="translate(-55.03 62.51) rotate(-11.55)"/><rect x="221.46" y="248.01" width="98.29" height="39.71" rx="11.69" transform="translate(-48.17 59.63) rotate(-11.55)"/><circle cx="307.75" cy="497.72" r="32.79"/><polyline class="cls-3" points="232.32 416.79 307.75 503.36 419.61 500.79"/><path class="cls-4" d="M430.89,332.58s34.86,26.28,34.86,40.57l171.43-20.29"/><line class="cls-4" x1="675.04" y1="345.15" x2="718.75" y2="340.86"/><polyline class="cls-4" points="754.32 334.86 940.04 310.86 940.04 378.29"/><polyline class="cls-4" points="908.61 578.29 889.75 578.29 847.18 783.15 731.18 770.29"/><polyline class="cls-4" points="649.75 756.58 469.75 736.01 462.04 829.43 390.89 760.01"/><text class="cls-5" transform="translate(495.15 497.19) rotate(-2.62)">BI<tspan class="cls-6" x="77.92" y="0">R</tspan><tspan class="cls-7" x="130.82" y="0">TH</tspan><tspan class="cls-8" x="234.31" y="0">D</tspan><tspan class="cls-9" x="294.52" y="0">A</tspan><tspan class="cls-7" x="346.34" y="0">Y</tspan></text><text class="cls-10" transform="translate(465.88 657.28) rotate(4.73)">REMINDER</text></g></svg>