<?xml version="1.0" standalone="no"?>
<!DOCTYPE svg PUBLIC "-//W3C//DTD SVG 20010904//EN"
 "http://www.w3.org/TR/2001/REC-SVG-20010904/DTD/svg10.dtd">
<svg version="1.0" xmlns="http://www.w3.org/2000/svg"
 width="1080.000000pt" height="1080.000000pt" viewBox="0 0 1080.000000 1080.000000"
 preserveAspectRatio="xMidYMid meet">

<g transform="translate(0.000000,1080.000000) scale(0.100000,-0.100000)"
fill="#000000" stroke="none">
<path d="M5180 7323 c-97 -10 -268 -49 -386 -88 -713 -234 -1222 -857 -1314
-1608 -19 -146 -8 -453 20 -592 163 -816 813 -1434 1631 -1550 134 -19 404
-19 538 0 641 91 1196 498 1476 1080 125 263 185 530 185 835 0 312 -60 577
-192 849 -279 573 -833 976 -1469 1066 -95 13 -392 18 -489 8z m554 -212 c700
-141 1236 -677 1378 -1383 20 -97 23 -144 23 -328 0 -184 -3 -231 -23 -328
-143 -708 -676 -1241 -1384 -1384 -97 -20 -144 -23 -328 -23 -184 0 -231 3
-328 23 -708 143 -1241 676 -1384 1384 -20 97 -23 144 -23 328 0 184 3 231 23
328 153 757 752 1311 1522 1406 19 2 121 3 225 1 146 -2 215 -8 299 -24z"/>
<path d="M4735 6528 c-43 -101 -83 -188 -89 -195 -6 -6 -175 -83 -376 -169
-201 -86 -369 -161 -375 -166 -5 -4 672 -8 1505 -8 832 0 1510 3 1507 7 -4 3
-175 77 -379 164 l-372 158 -76 195 -75 196 -596 0 -597 0 -77 -182z"/>
<path d="M4420 5535 l0 -385 80 0 80 0 0 115 0 115 40 0 c53 0 98 20 137 61
46 49 53 77 53 209 0 132 -7 160 -53 209 -50 52 -81 61 -217 61 l-120 0 0
-385z m225 115 l0 -105 -32 -3 -33 -3 0 111 0 111 33 -3 32 -3 0 -105z"/>
<path d="M6025 5816 c-38 -17 -90 -72 -104 -109 -7 -17 -11 -131 -11 -293 l0
-264 80 0 80 0 0 75 0 75 35 0 35 0 0 -75 0 -75 80 0 80 0 0 253 c0 142 -5
268 -10 289 -30 107 -164 169 -265 124z m103 -158 c8 -8 12 -46 12 -105 l0
-93 -35 0 -35 0 0 98 c0 54 3 102 7 105 10 11 38 8 51 -5z"/>
<path d="M4850 5480 l0 -330 80 0 80 0 0 330 0 330 -80 0 -80 0 0 -330z"/>
<path d="M5062 5733 l3 -78 81 -3 81 -3 -78 -242 c-44 -133 -79 -245 -79 -249
0 -5 86 -8 190 -8 l190 0 0 80 0 80 -79 0 -79 0 79 237 c43 131 79 243 79 250
0 10 -44 13 -195 13 l-196 0 3 -77z"/>
<path d="M5492 5733 l3 -78 81 -3 81 -3 -78 -242 c-44 -133 -79 -245 -79 -249
0 -5 86 -8 190 -8 l190 0 0 80 0 80 -79 0 -79 0 79 237 c43 131 79 243 79 250
0 10 -44 13 -195 13 l-196 0 3 -77z"/>
<path d="M4345 5093 c-46 -24 -76 -54 -96 -98 -17 -36 -19 -70 -19 -357 l0
-318 80 0 80 0 0 304 c0 325 2 336 50 321 20 -6 20 -13 20 -316 l0 -309 80 0
80 0 0 304 c0 325 2 336 50 321 20 -6 20 -13 20 -316 l0 -309 80 0 80 0 0 318
c0 350 -3 365 -66 424 -54 50 -141 63 -208 32 -32 -16 -37 -16 -69 0 -44 20
-123 20 -162 -1z"/>
<path d="M5225 4986 c-40 -18 -80 -62 -99 -108 -13 -30 -16 -78 -16 -230 0
-213 8 -245 66 -300 43 -40 75 -48 182 -48 156 0 142 -18 142 191 l0 179 -100
0 -100 0 0 -76 c0 -67 2 -76 20 -81 13 -4 20 -14 20 -30 0 -21 -4 -24 -32 -21
l-33 3 0 185 0 185 30 0 c29 0 30 -2 35 -55 l5 -55 75 0 75 0 3 60 c3 73 -24
134 -81 179 -31 25 -48 31 -100 33 -38 2 -73 -2 -92 -11z"/>
<path d="M4900 4650 l0 -330 80 0 80 0 0 330 0 330 -80 0 -80 0 0 -330z"/>
<path d="M5550 4717 c0 -253 1 -264 23 -307 58 -114 202 -147 294 -67 69 61
73 79 73 375 l0 262 -80 0 -80 0 -2 -257 -3 -258 -30 0 -30 0 -3 258 -2 257
-80 0 -80 0 0 -263z"/>
<path d="M5990 4650 l0 -330 170 0 170 0 0 80 0 80 -90 0 -90 0 0 35 0 35 75
0 75 0 0 80 0 80 -75 0 -75 0 0 55 0 55 90 0 90 0 0 80 0 80 -170 0 -170 0 0
-330z"/>
<path d="M6380 4650 l0 -330 175 0 176 0 -3 78 -3 77 -92 3 -93 3 0 249 0 250
-80 0 -80 0 0 -330z"/>
</g>
</svg>
